<?xml version="1.0" encoding="UTF-8" standalone="no"?>
<svg xmlns:dc="http://purl.org/dc/elements/1.1/" xmlns:cc="http://creativecommons.org/ns#" xmlns:rdf="http://www.w3.org/1999/02/22-rdf-syntax-ns#" xmlns:svg="http://www.w3.org/2000/svg" xmlns="http://www.w3.org/2000/svg" xmlns:sodipodi="http://sodipodi.sourceforge.net/DTD/sodipodi-0.dtd" xmlns:inkscape="http://www.inkscape.org/namespaces/inkscape" width="126.97mm" height="99.489998mm" id="svg2" sodipodi:version="0.32" inkscape:version="0.46" inkscape:output_extension="org.inkscape.output.svg.inkscape" sodipodi:docname="Lambang_BPS.svg">
  <metadata id="metadata17">
    <rdf:RDF>
      <cc:Work rdf:about="">
        <dc:format>image/svg+xml</dc:format>
        <dc:type rdf:resource="http://purl.org/dc/dcmitype/StillImage"/>
      </cc:Work>
    </rdf:RDF>
  </metadata>
  <defs id="defs15">
    <inkscape:perspective sodipodi:type="inkscape:persp3d" inkscape:vp_x="0 : 176.26181 : 1" inkscape:vp_y="0 : 1000 : 0" inkscape:vp_z="449.89371 : 176.26181 : 1" inkscape:persp3d-origin="224.94685 : 117.50787 : 1" id="perspective19"/>
  </defs>
  <sodipodi:namedview inkscape:window-height="712" inkscape:window-width="1024" inkscape:pageshadow="2" inkscape:pageopacity="0.0" guidetolerance="10.0" gridtolerance="10.0" objecttolerance="10.0" borderopacity="1.0" bordercolor="#666666" pagecolor="#ffffff" id="base" showgrid="false" inkscape:zoom="1.2091745" inkscape:cx="224.94685" inkscape:cy="171.61671" inkscape:window-x="-4" inkscape:window-y="-4" inkscape:current-layer="svg2"/>
<!-- EMR_GDICOMMENT --><!-- EMR_SETMAPMODE --><!-- EMR_SETVIEWPORTEXTEX --><!-- EMR_SETWINDOWEXTEX --><!-- EMR_SETWINDOWEXTEX --><!-- EMR_SETWINDOWEXTEX --><!-- EMR_SETWINDOWEXTEX --><!-- EMR_POLYPOLYGON16... --><!-- EMR_SELECTPALETTE --><!-- EMR_EXTSELECTCLIPRGN -->  <g id="g2423">
    <path id="path10" d="  M 374.87393 237.91266   L 370.88112 240.24707   L 366.88832 242.55335   L 362.83927 244.85963   L 358.73399 247.13779   L 354.60059 249.38782   L 350.43908 251.60972   L 346.24944 253.8035   L 342.00357 255.99728   L 337.70146 258.13481   L 333.39935 260.27234   L 329.04101 262.38175   L 324.65454 264.46302   L 320.23996 266.51618   L 315.76914 268.54121   L 311.27021 270.53811   L 298.05458 276.16319   L 284.86707 281.42263   L 271.7358 286.28833   L 258.717 290.78839   L 245.78255 294.89469   L 232.96058 298.60725   L 220.27921 301.98229   L 207.76654 304.93546   L 195.42258 307.55112   L 183.27545 309.77302   L 171.35326 311.60117   L 159.65603 313.06369   L 148.21186 314.16059   L 137.04887 314.86372   L 126.16707 315.20122   L 115.62268 315.1731   L 105.3876 314.77934   L 95.518057 313.99183   L 86.014053 312.81057   L 76.903705 311.2918   L 68.187015 309.37927   L 59.920218 307.10111   L 52.103315 304.45733   L 44.736305 301.41978   L 37.847308 298.04474   L 31.492559 294.27594   L 25.643941 290.1415   L 20.329572 285.64144   L 15.605688 280.77575   L 11.444171 275.5163   L 7.8731398 269.91935   L 4.9488308 263.92864   L 2.9805458 258.61294   L 1.5183913 253.15662   L 0.53424877 247.55967   L 0.028118357 241.82209   L 0 235.97201   L 0.44989371 229.9813   L 1.3215628 223.90621   L 2.6712439 217.74675   L 4.4708187 211.47479   L 6.6921689 205.11846   L 9.3352944 198.70587   L 12.400195 192.23703   L 15.886871 185.68381   L 19.767205 179.10247   L 24.041195 172.52113   L 28.708842 165.85541   L 33.742028 159.21782   L 39.168871 152.55211   L 44.933134 145.88639   L 51.091054 139.2488   L 57.558276 132.58308   L 64.391037 125.97361   L 71.533099 119.39227   L 79.012582 112.86718   L 86.801367 106.39834   L 94.899453 99.985755   L 103.30684 93.629417   L 111.99541 87.357455   L 120.96517 81.16987   L 130.24423 75.094786   L 139.74823 69.132204   L 149.53342 63.282123   L 141.01356 68.879075   L 132.71864 74.588529   L 124.67679 80.354234   L 116.88801 86.204315   L 109.35229 92.082521   L 102.09775 98.016978   L 95.1244 104.00769   L 88.404113 110.05464   L 81.993128 116.1016   L 75.835208 122.17669   L 70.014708 128.2799   L 64.475392 134.3831   L 59.273496 140.51444   L 54.352783 146.61765   L 49.769491 152.69273   L 45.523619 158.79594   L 41.615168 164.8429   L 38.044136 170.86173   L 34.810525 176.82432   L 31.942453 182.75877   L 29.411801 188.63698   L 27.274806 194.48706   L 25.503349 200.25276   L 24.097432 205.93409   L 23.085171 211.53104   L 22.466567 217.07175   L 22.24162 222.49995   L 22.438449 227.81564   L 23.028934 233.04697   L 24.041195 238.16579   L 25.475231 243.14398   L 27.331043 248.00967   L 30.311588 253.94413   L 33.910738 259.54108   L 38.15661 264.7724   L 42.964849 269.60997   L 48.363573 274.11003   L 54.296547 278.21634   L 60.763769 281.95702   L 67.765239 285.33206   L 75.244722 288.34148   L 83.202217 290.98527   L 91.609606 293.26342   L 100.46689 295.14782   L 109.71783 296.66659   L 119.39054 297.81973   L 129.4288 298.60725   L 139.80447 299.02913   L 150.54568 299.05725   L 161.5962 298.71975   L 172.92789 298.01661   L 184.56889 296.91972   L 196.43484 295.4572   L 208.55385 293.62905   L 220.89781 291.43527   L 233.46671 288.84774   L 246.17621 285.86644   L 259.05442 282.54765   L 272.10134 278.8351   L 285.23261 274.72879   L 298.50447 270.25685   L 311.83257 265.41929   L 325.21691 260.18797   L 338.65749 254.59101   L 341.27249 253.466   L 343.85938 252.31286   L 346.41815 251.18784   L 348.97692 250.0347   L 351.53569 248.88156   L 354.06635 247.70029   L 356.597 246.51903   L 359.09953 245.33776   L 361.60207 244.15649   L 364.1046 242.9471   L 366.57901 241.73771   L 369.05343 240.50019   L 371.49973 239.2908   L 373.94602 238.05328   L 376.3642 236.81577   L 378.78238 235.57825  z " style="fill:#0093dd;fill-rule:evenodd;fill-opacity:1;stroke:none;"/>
    <path id="path6" d="  M 307.53047 117.45162   L 288.15692 225.81874   L 351.33887 225.67811   L 351.81688 225.42499   L 352.26677 225.17186   L 352.66043 225.0031   L 353.02597 224.83435   L 353.36339 224.72185   L 353.64457 224.63747   L 353.89764 224.58122   L 354.12258 224.5531   L 354.82554 224.5531   L 355.24732 224.58122   L 355.35979 224.5531   L 355.44415 224.49685   L 355.5285 224.4406   L 355.61286 224.35622   L 355.80968 224.07497   L 356.03463 223.62496   L 356.70947 222.13432   L 357.80609 219.60303   L 379.93523 113.93595   L 379.5697 112.72656   L 379.31663 111.77029   L 379.17604 111.01091   L 379.09168 110.42027   L 379.03545 110.02652   L 379.00733 109.71714   L 378.97921 109.52026   L 378.92297 109.37963   L 378.8105 109.26713   L 378.61367 109.15463   L 378.30437 109.04213   L 377.85448 108.84525   L 377.26399 108.564   L 376.50479 108.14212   L 375.52065 107.60773   L 374.31156 106.84835   L 301.06324 107.69211   L 302.18798 101.87016   L 303.36895 96.104451   L 304.5218 90.394997   L 305.70277 84.741794   L 306.88374 79.116717   L 308.09283 73.54789   L 309.30192 67.979063   L 310.51101 62.438362   L 311.74822 56.89766   L 312.98543 51.385084   L 314.25075 45.872508   L 315.5442 40.331807   L 316.83764 34.81923   L 318.13109 29.250404   L 319.45265 23.681577   L 320.80233 18.084625   L 320.52115 17.943998   L 320.40867 17.775245   L 320.46491 17.550242   L 320.63362 17.268988   L 320.94292 16.931484   L 321.39282 16.565854   L 321.95518 16.143973   L 322.65814 15.693967   L 323.41734 15.215835   L 324.31712 14.681453   L 325.27315 14.118945   L 326.31353 13.528312   L 328.59111 12.290795   L 331.12177 10.968901   L 333.76489 9.5907573   L 336.52049 8.1563625   L 339.27609 6.7219678   L 341.97545 5.287573   L 344.56234 3.8813036   L 346.98052 2.5031595   L 348.10525 1.8562756   L 349.17375 1.2093917   L 350.12978 0.59063315   L 351.02956 0   L 253.79629 0.7031347   L 252.86838 4.3031844   L 251.94047 7.9032341   L 251.04069 11.531409   L 250.1409 15.131459   L 248.39756 22.387809   L 246.68234 29.644159   L 245.02336 36.900509   L 243.36438 44.184985   L 241.76163 51.46946   L 240.15888 58.753936   L 238.58426 66.038411   L 237.00963 73.351012   L 235.435 80.663613   L 233.86037 87.976214   L 232.28574 95.288815   L 230.683 102.62954   L 229.05213 109.94214   L 227.39315 117.28287   L 232.42634 117.19849   L 237.4314 117.14224   L 242.43647 117.11412   L 247.44154 117.08599   L 252.44661 117.08599   L 257.47979 117.11412   L 262.48486 117.14224   L 267.48993 117.17037   L 272.49499 117.22662   L 277.50006 117.28287   L 282.50513 117.31099   L 287.5102 117.36724   L 292.51526 117.39537   L 297.52033 117.4235   L 302.5254 117.45162   L 307.53047 117.45162  z    M 410.27494 178.14621   L 409.9094 178.79309   L 409.51575 179.4681   L 409.12209 180.17124   L 408.75655 180.84625   L 408.36289 181.54938   L 407.99735 182.22439   L 407.6037 182.92752   L 407.23816 183.63066   L 412.77747 178.14621   L 410.27494 178.14621  z    M 410.24682 37.575519   L 409.62822 37.238014   L 409.00961 36.928635   L 408.39101 36.59113   L 407.74429 36.281751   L 407.51934 37.575519   L 410.24682 37.575519  z    M 148.60551 51.863216   L 147.48078 52.20072   L 148.1275 54.394501   L 148.60551 51.863216  z   " style="fill:#e77817;fill-rule:evenodd;fill-opacity:1;stroke:none;"/>
    <path id="path12" d="  M 344.61858 15.215835   L 354.9099 15.862719   L 364.66697 16.931484   L 373.91791 18.394004   L 382.66271 20.278405   L 390.87327 22.556561   L 398.5777 25.200348   L 405.74789 28.209764   L 412.41194 31.584811   L 418.51362 35.325487   L 424.08105 39.403669   L 429.14236 43.819355   L 433.6413 48.54442   L 437.60598 53.60699   L 441.0083 58.950813   L 443.87638 64.575891   L 446.18208 70.510348   L 447.95354 76.726059   L 449.16263 83.194898   L 449.80935 89.916866   L 449.89371 96.891962   L 449.41569 104.09206   L 448.37531 111.51716   L 446.74445 119.16727   L 444.55122 127.01425   L 441.7675 135.05811   L 438.42142 143.29885   L 434.51296 151.73647   L 429.98591 160.31471   L 424.89649 169.06171   L 419.18846 177.92121   L 412.91807 186.94945   L 417.19206 178.45559   L 420.95992 170.10235   L 424.22165 161.88973   L 427.00536 153.874   L 429.25483 145.99889   L 431.02629 138.32066   L 432.29161 130.83931   L 433.05081 123.5267   L 433.33199 116.43911   L 433.13516 109.57651   L 432.43221 102.9108   L 431.25123 96.498207   L 429.56413 90.310621   L 427.42714 84.376164   L 424.78401 78.694836   L 421.66288 73.266636   L 418.09184 68.11969   L 414.0428 63.225872   L 409.51575 58.641434   L 404.51068 54.33825   L 399.0276 50.316319   L 393.12274 46.631893   L 386.71176 43.228722   L 379.879 40.19118   L 372.56822 37.463017   L 364.80756 35.072359   L 356.597 33.019206   L 347.93654 31.331682   L 338.79808 30.009789   L 329.23784 29.053526   L 319.2277 28.462893   L 308.79579 28.266015   L 303.22836 28.322266   L 297.57657 28.462893   L 291.89666 28.744147   L 286.16051 29.109777   L 280.34001 29.559783   L 274.4914 30.150416   L 268.58654 30.7973   L 262.65357 31.556685   L 256.63624 32.428572   L 250.61891 33.384836   L 244.54535 34.4536   L 238.41555 35.606741   L 232.25763 36.844258   L 226.07159 38.166152   L 219.85743 39.600546   L 213.61515 41.119317   L 207.34476 42.722465   L 201.04625 44.409988   L 194.71962 46.181887   L 188.36487 48.038163   L 182.01012 49.978815   L 175.62726 52.003843   L 169.21627 54.113247   L 162.80528 56.307027   L 156.3943 58.585183   L 149.98331 60.947716   L 143.54421 63.366499   L 137.10511 65.869659   L 130.666 68.457195   L 124.2269 71.100981   L 117.7878 73.829144   L 111.37681 76.641683   L 118.46264 73.126009   L 125.6047 69.694712   L 132.77488 66.347791   L 139.94506 63.085246   L 147.11524 59.935202   L 154.31354 56.841409   L 161.53996 53.860118   L 168.73826 50.991329   L 175.96468 48.206915   L 183.16297 45.506878   L 190.36127 42.919342   L 197.55957 40.444308   L 204.72975 38.05365   L 211.89994 35.803619   L 219.01388 33.637964   L 226.15594 31.584811   L 233.24177 29.644159   L 240.29948 27.787883   L 247.30095 26.072235   L 254.30242 24.469088   L 261.21953 23.006567   L 268.13665 21.628423   L 274.96941 20.390906   L 281.77405 19.294016   L 288.52246 18.281502   L 295.18651 17.437741   L 301.79432 16.678355   L 308.3459 16.087722   L 314.84124 15.60959   L 321.25222 15.272086   L 327.57885 15.047083   L 333.82113 14.990832  z " style="fill:#e77817;fill-rule:evenodd;fill-opacity:1;stroke:none;"/>
    <path id="path8" d="  M 200.73695 233.21572   L 113.2045 236.14076   L 88.938362 352.52361   L 160.64017 352.10173   L 161.62431 347.93918   L 162.88964 342.51098   L 164.37991 335.98589   L 166.09513 328.58891   L 167.92283 320.4888   L 169.89111 311.93868   L 171.91563 303.07918   L 173.96827 294.16343   L 175.99279 285.38831   L 177.93296 276.92257   L 179.76065 268.99121   L 181.41964 261.79111   L 182.88179 255.54728   L 184.09088 250.42846   L 184.99067 246.65965   L 185.55304 244.40962   L 262.00685 244.15649   L 262.59733 243.79086   L 263.18782 243.45336   L 263.72207 243.17211   L 264.2282 242.91898   L 264.70621 242.7221   L 265.1561 242.55335   L 265.57788 242.41272   L 265.97153 242.30022   L 267.2931 241.99084   L 268.30536 241.79396   L 268.50219 241.70959   L 268.69902 241.62521   L 268.89584 241.54083   L 269.06455 241.42833   L 269.23326 241.25958   L 269.37386 241.09083   L 269.54257 240.86582   L 269.68316 240.64082   L 269.82375 240.33144   L 269.96434 239.99394   L 270.10493 239.60018   L 270.24552 239.1783   L 270.52671 238.10954   L 270.83601 236.78764   L 272.0451 231.02194   L 273.31043 225.03123   L 274.60387 218.81552   L 275.92543 212.43106   L 277.247 205.87784   L 278.59668 199.21212   L 279.94636 192.46203   L 281.29604 185.65569   L 282.64572 178.79309   L 283.96728 171.98675   L 285.28885 165.1804   L 286.58229 158.43031   L 287.87573 151.76459   L 289.11294 145.2395   L 290.32203 138.85504   L 291.47488 132.63933   L 222.86609 131.9362   L 219.12635 146.95515  z " style="fill:#00923f;fill-rule:evenodd;fill-opacity:1;stroke:none;"/>
    <path id="path4" d="  M 136.06473 119.81415   L 136.03661 122.48607   L 135.95225 125.1861   L 135.8679 127.97052   L 135.75543 130.81118   L 135.58672 133.7081   L 135.41801 136.63314   L 135.22118 139.5863   L 134.99623 142.53947   L 134.71505 145.54888   L 134.43386 148.53017   L 134.15268 151.53959   L 133.81526 154.52088   L 133.44972 157.47405   L 133.05606 160.42721   L 132.66241 163.32413   L 132.21251 166.19292   L 131.76262 168.94921   L 131.28461 171.73362   L 130.77848 174.40553   L 130.24423 177.04932   L 129.70998 179.55248   L 129.11949 181.99939   L 128.52901 184.33379   L 127.9104 186.5557   L 127.26368 188.69323   L 126.58884 190.69013   L 125.914 192.54641   L 125.21104 194.29018   L 124.47996 195.8652   L 123.72077 197.2996   L 122.96157 198.56524   L 121.30259 200.9559   L 119.72796 203.12155   L 118.15333 205.0622   L 116.66306 206.8341   L 115.17279 208.381   L 113.73875 209.78727   L 112.33283 211.02479   L 110.98315 212.12168   L 109.66159 213.07794   L 108.36815 213.9217   L 107.10282 214.62484   L 105.89373 215.27172   L 104.68464 215.8061   L 103.53179 216.25611   L 102.40705 216.64986   L 101.31044 216.98737   L 99.201562 217.54988   L 97.233277 218.08426   L 96.277253 218.33739   L 95.349347 218.61864   L 94.44956 218.95615   L 93.577891 219.32178   L 92.706222 219.74366   L 91.890789 220.22179   L 91.075357 220.7843   L 90.316161 221.45931   L 89.528847 222.21869   L 88.79777 223.1187   L 88.066693 224.13122   L 87.363734 225.28436   L 95.011927 225.31248   L 102.23834 225.36873   L 109.07111 225.48124   L 115.53833 225.62186   L 121.64001 225.76249   L 127.40427 225.93124   L 132.803 226.09999   L 137.89242 226.26875   L 142.64442 226.40937   L 147.11524 226.57813   L 151.27676 226.69063   L 155.15709 226.775   L 158.78436 226.83126   L 162.13044 226.85938   L 165.22346 226.83126   L 168.09154 226.71875   L 170.76278 226.57813   L 173.18096 226.325   L 175.43043 226.01562   L 177.45495 225.62186   L 179.33888 225.14373   L 181.0541 224.5531   L 182.60061 223.84996   L 184.00653 223.03433   L 185.27185 222.07806   L 186.45282 221.0093   L 187.4932 219.82803   L 188.47734 218.47801   L 189.34901 216.95924   L 190.16445 215.32797   L 190.89552 213.49982   L 191.59848 211.50292   L 192.10461 209.75914   L 192.61074 207.84662   L 193.14499 205.73721   L 193.70736 203.48718   L 194.29784 201.0684   L 194.88833 198.53711   L 195.50693 195.83708   L 196.12554 193.02454   L 197.39086 187.09008   L 198.71243 180.81812   L 200.03399 174.2649   L 201.35555 167.51481   L 202.649 160.68034   L 203.91432 153.81775   L 205.12341 147.0114   L 206.27626 140.37381   L 207.34476 133.96122   L 208.3289 127.88614   L 209.20057 122.23294   L 209.95977 117.05787   L 210.18472 115.48284   L 210.32531 114.18908   L 210.43778 113.12031   L 210.52214 112.27655   L 210.52214 111.93904   L 210.52214 111.62967   L 210.49402 111.34841   L 210.4659 111.12341   L 210.43778 110.89841   L 210.38154 110.70153   L 210.29719 110.5609   L 210.21283 110.42027   L 210.10036 110.27965   L 209.98789 110.16715   L 209.8473 110.05464   L 209.7067 109.94214   L 209.34116 109.68901   L 208.94751 109.43589   L 208.4695 109.07026   L 207.90713 108.64837   L 207.62594 108.36712   L 207.28852 108.05774   L 206.9511 107.72024   L 206.61368 107.32648   L 130.01928 105.18895   L 152.99198 1.0406394   L 81.740063 0.78751087   L 58.570537 117.67662   L 63.631841 117.6485   L 68.60879 117.6485   L 73.557621 117.62037   L 78.478333 117.59225   L 83.370927 117.56412   L 88.207285 117.536   L 93.043642 117.50787   L 97.851881 117.45162   L 102.632 117.4235   L 107.41212 117.39537   L 112.19224 117.33912   L 116.97236 117.31099   L 121.72437 117.28287   L 126.50449 117.28287   L 131.28461 117.25474   L 136.09285 117.25474  z " style="fill:#0093dd;fill-rule:evenodd;fill-opacity:1;stroke:none;"/>
  </g>
</svg>